<svg id="Layer_1" data-name="Layer 1" xmlns="http://www.w3.org/2000/svg" viewBox="0 0 500 500"><defs><style>.cls-1{fill:#262626;}.cls-2{fill:#fff;}</style></defs><g id="Facebook"><rect id="back-15" class="cls-1" width="500" height="500"/><path id="Facebook-2" class="cls-2" d="M374.53,110H125.47A15.47,15.47,0,0,0,110,125.47h0V374.53A15.47,15.47,0,0,0,125.47,390H259.53V281.59H223.06v-42.3h36.47V208.18c0-36.18,22.12-55.89,54.35-55.89a317.84,317.84,0,0,1,32.65,1.65v37.82H324.12c-17.65,0-20.94,8.36-20.94,20.59v26.94h41.88l-5.47,42.3H303.18V390h71.35A15.47,15.47,0,0,0,390,374.53h0V125.47A15.47,15.47,0,0,0,374.53,110Z"/></g></svg>