<svg id="Layer_1" data-name="Layer 1" xmlns="http://www.w3.org/2000/svg" viewBox="0 0 500 500"><defs><style>.cls-1{fill:#262626;}.cls-2{fill:#fff;}</style></defs><g id="Instagram"><rect id="back-12" class="cls-1" width="500" height="500"/><path class="cls-2" d="M250,135.29c37.35,0,41.82,0,56.59.83a76.22,76.22,0,0,1,26,4.82,46.57,46.57,0,0,1,26.53,26.53,76.22,76.22,0,0,1,4.82,26c.71,14.77.82,19.24.82,56.59s0,41.82-.82,56.59a76.22,76.22,0,0,1-4.82,26,46.57,46.57,0,0,1-26.53,26.53,76.22,76.22,0,0,1-26,4.82c-14.77.71-19.18.82-56.59.82s-41.82,0-56.59-.82a76.22,76.22,0,0,1-26-4.82,46.57,46.57,0,0,1-26.53-26.53,76.22,76.22,0,0,1-4.82-26c-.71-14.77-.82-19.24-.82-56.59s0-41.82.82-56.59a76.22,76.22,0,0,1,4.82-26,46.57,46.57,0,0,1,26.53-26.53,76.22,76.22,0,0,1,26-4.82c14.77-.71,19.24-.83,56.59-.83m0-25.23c-38,0-42.76,0-57.71.82a103,103,0,0,0-34,6.53,71.16,71.16,0,0,0-41.17,41.18,102.9,102.9,0,0,0-6.53,34c-.65,14.94-.83,19.7-.83,57.7s0,42.77.83,57.71a102.9,102.9,0,0,0,6.53,34,71.16,71.16,0,0,0,41.17,41.18,103,103,0,0,0,34,6.53c15,.64,19.71.82,57.71.82s42.76,0,57.71-.82a103,103,0,0,0,34-6.53A71.16,71.16,0,0,0,382.88,342a102.9,102.9,0,0,0,6.53-34c.65-14.94.83-19.71.83-57.71s0-42.76-.83-57.7a102.9,102.9,0,0,0-6.53-34,71.16,71.16,0,0,0-41.17-41.18,103,103,0,0,0-34-6.53C292.76,110.24,288,110.06,250,110.06Z"/><path class="cls-2" d="M250,178.12A71.88,71.88,0,1,0,321.88,250h0A71.88,71.88,0,0,0,250,178.12Zm0,118.53A46.65,46.65,0,1,1,296.65,250h0A46.66,46.66,0,0,1,250,296.65Z"/><circle class="cls-2" cx="324.71" cy="175.29" r="16.82"/></g></svg>