<svg id="Layer_1" data-name="Layer 1" xmlns="http://www.w3.org/2000/svg" viewBox="0 0 500 500"><defs><style>.cls-1{fill:#262626;}.cls-2{fill:#fff;}</style></defs><g id="Twitter"><rect id="back-5" class="cls-1" width="500" height="500"/><path id="Twitter-2" class="cls-2" d="M390,163.18a117,117,0,0,1-33,9.06,57.7,57.7,0,0,0,25.29-31.83,115.17,115.17,0,0,1-36.53,13.94,57.47,57.47,0,0,0-99.35,39.3,60.22,60.22,0,0,0,1.47,13.11,163.38,163.38,0,0,1-118.47-59.7,57.47,57.47,0,0,0,17.65,76.47A57.52,57.52,0,0,1,121,216.35v.77a57.46,57.46,0,0,0,46.12,56.29,58.58,58.58,0,0,1-25.94,1,57.4,57.4,0,0,0,53.64,39.88,115.2,115.2,0,0,1-71.29,24.47,116.37,116.37,0,0,1-13.71-.82,162,162,0,0,0,88.24,25.82c105.88,0,163.47-87.52,163.47-163.41v-7.47A116.36,116.36,0,0,0,390,163.18Z"/></g></svg>